<svg xmlns="http://www.w3.org/2000/svg" viewBox="0 0 12739.17 1384.66"><defs><style>.cls-1{fill:#1a2042;}</style></defs><g id="Layer_2" data-name="Layer 2"><g id="Layer_1-2" data-name="Layer 1"><path class="cls-1" d="M4725.4,26.62H4095.84V1358H4725.4c441.24,0,743.68-256.78,743.68-665.68S5166.64,26.62,4725.4,26.62Zm-15.24,1030.9H4472.43V327.16h237.73c226.35,0,378.51,135,378.51,365.18S4936.51,1057.52,4710.16,1057.52Z"/><rect class="cls-1" x="5666.87" y="26.62" width="376.6" height="1331.4"/><path class="cls-1" d="M7004,311.93c127.42,0,232,47.53,323.34,148.34l239.63-216.81C7435.7,85.58,7234.09,0,6984.91,0c-431.73,0-741.74,287.21-741.74,692.33s310,692.3,734.14,692.3c194,0,405.12-59,559.19-169.27V663.78H7203.66V1029c-66.55,30.44-133.14,43.76-203.51,43.76-224.44,0-376.6-155.94-376.6-380.38C6623.55,462.18,6775.71,311.93,7004,311.93Z"/><rect class="cls-1" x="7776.17" y="26.62" width="376.6" height="1331.4"/><polygon class="cls-1" points="9487.95 26.62 8295.39 26.62 8295.39 325.25 8704.33 325.25 8704.33 1358.02 9080.92 1358.02 9080.92 325.25 9487.95 325.25 9487.95 26.62"/><path class="cls-1" d="M9990.13,26.62,9402.41,1358h384.2l104.59-258.65h563L10558.82,1358h391.8L10361,26.62Zm11.41,795.05,171.18-426,171.17,426.05Z"/><polygon class="cls-1" points="11433.74 26.62 11057.15 26.62 11057.15 1358.02 12069 1358.02 12069 1059.4 11433.74 1059.4 11433.74 26.62"/><path class="cls-1" d="M692.33,0C310.1,0,0,310.1,0,692.33s310.1,692.33,692.33,692.33,692.1-310.09,692.1-692.33S1074.57,0,692.33,0Z"/><polygon class="cls-1" points="3085.74 692.33 3085.74 1384.43 3539.89 1384.43 3539.89 692.33 3539.89 0 3085.74 0 3085.74 692.33"/><path class="cls-1" d="M2189.88,0c3.28,117.57,18.27,692.33-.47,692.33H1497.08c0,382.24,309.87,692.1,692.33,692.1,382.24,0,692.11-309.86,692.11-692.1C2881.52,310.33,2571.89.46,2189.88,0Z"/><rect class="cls-1" x="12277.28" y="891.31" width="461.9" height="461.9"/></g></g></svg>